<?xml version="1.0" encoding="utf-8"?>
<!-- Generator: Adobe Illustrator 18.0.0, SVG Export Plug-In . SVG Version: 6.00 Build 0)  -->
<!DOCTYPE svg PUBLIC "-//W3C//DTD SVG 1.1//EN" "http://www.w3.org/Graphics/SVG/1.1/DTD/svg11.dtd">
<svg version="1.1" id="Layer_1" xmlns="http://www.w3.org/2000/svg" xmlns:xlink="http://www.w3.org/1999/xlink" x="0px" y="0px"
	 width="50px" height="50px" viewBox="0 0 50 50" enable-background="new 0 0 50 50" xml:space="preserve">
<rect x="38" y="6" fill="#3C4654" width="7" height="39"/>
<rect x="38" y="6" fill="#515151" width="7" height="40"/>
<rect x="43" y="6" opacity="0.15" fill="#FFFFFF" width="2" height="2"/>
<rect x="43" y="8" opacity="0.4" fill="#231F20" width="2" height="2"/>
<rect x="43" y="10" opacity="0.25" fill="#FFFFFF" width="2" height="2"/>
<rect x="43" y="12" opacity="0.4" fill="#231F20" width="2" height="2"/>
<rect x="43" y="14" opacity="0.2" fill="#FFFFFF" width="2" height="2"/>
<rect x="43" y="16" opacity="0.4" fill="#231F20" width="2" height="2"/>
<rect x="43" y="18" opacity="0.1" fill="#FFFFFF" width="2" height="2"/>
<rect x="43" y="20" opacity="0.4" fill="#231F20" width="2" height="2"/>
<rect x="43" y="22" opacity="5.000000e-02" fill="#FFFFFF" width="2" height="2"/>
<rect x="43" y="24" opacity="0.4" fill="#231F20" width="2" height="2"/>
<rect x="43" y="28" opacity="0.4" fill="#231F20" width="2" height="2"/>
<rect x="43" y="32" opacity="0.4" fill="#231F20" width="2" height="2"/>
<rect x="43" y="36" opacity="0.4" fill="#231F20" width="2" height="2"/>
<rect x="43" y="38" opacity="8.000000e-02" fill="#FFFFFF" width="2" height="2"/>
<rect x="43" y="40" opacity="0.4" fill="#231F20" width="2" height="2"/>
<rect x="43" y="42" opacity="0.15" fill="#FFFFFF" width="2" height="2"/>
<rect x="43" y="44" opacity="0.4" fill="#231F20" width="2" height="2"/>
<rect x="5" y="6" fill="#515151" width="7" height="40"/>
<rect x="5" y="6" opacity="0.15" fill="#FFFFFF" width="2" height="2"/>
<rect x="5" y="8" opacity="0.4" fill="#231F20" width="2" height="2"/>
<rect x="5" y="10" opacity="0.25" fill="#FFFFFF" width="2" height="2"/>
<rect x="5" y="12" opacity="0.4" fill="#231F20" width="2" height="2"/>
<rect x="5" y="14" opacity="0.2" fill="#FFFFFF" width="2" height="2"/>
<rect x="5" y="16" opacity="0.4" fill="#231F20" width="2" height="2"/>
<rect x="5" y="18" opacity="0.1" fill="#FFFFFF" width="2" height="2"/>
<rect x="5" y="20" opacity="0.4" fill="#231F20" width="2" height="2"/>
<rect x="5" y="22" opacity="5.000000e-02" fill="#FFFFFF" width="2" height="2"/>
<rect x="5" y="24" opacity="0.4" fill="#231F20" width="2" height="2"/>
<rect x="5" y="28" opacity="0.4" fill="#231F20" width="2" height="2"/>
<rect x="5" y="32" opacity="0.4" fill="#231F20" width="2" height="2"/>
<rect x="5" y="36" opacity="0.4" fill="#231F20" width="2" height="2"/>
<rect x="5" y="38" opacity="8.000000e-02" fill="#FFFFFF" width="2" height="2"/>
<rect x="5" y="40" opacity="0.4" fill="#231F20" width="2" height="2"/>
<rect x="5" y="42" opacity="0.15" fill="#FFFFFF" width="2" height="2"/>
<rect x="5" y="44" opacity="0.4" fill="#231F20" width="2" height="2"/>
<polygon fill="#FF5A12" points="34,5 34,6 33,6 32,6 32,8 30,8 30,2 28,2 26,2 24,2 22,2 20,2 20,8 18,8 18,6 17,6 16,6 16,5 7,5 
	7,47 16,47 16,46 34,46 34,47 43,47 43,5 "/>
<rect x="7" y="7" opacity="0.35" fill="#FFFFFF" width="9" height="2"/>
<rect x="7" y="5" opacity="0.55" fill="#FFFFFF" width="9" height="2"/>
<rect x="34" y="7" opacity="0.35" fill="#FFFFFF" width="9" height="2"/>
<rect x="34" y="5" opacity="0.55" fill="#FFFFFF" width="9" height="2"/>
<rect x="7" y="43" opacity="0.45" fill="#A7A9AC" width="7" height="2"/>
<rect x="7" y="41" opacity="0.45" fill="#A7A9AC" width="7" height="2"/>
<rect x="7" y="32" opacity="0.45" fill="#A7A9AC" width="7" height="2"/>
<rect x="36" y="32" opacity="0.45" fill="#A7A9AC" width="7" height="2"/>
<rect x="7" y="45" opacity="0.8" fill="#A7A9AC" width="7" height="2"/>
<rect x="7" y="43" opacity="0.45" fill="#A7A9AC" width="7" height="2"/>
<rect x="7" y="45" opacity="0.8" fill="#A7A9AC" width="7" height="2"/>
<rect x="7" y="43" opacity="0.45" fill="#A7A9AC" width="7" height="2"/>
<rect x="7" y="45" opacity="0.8" fill="#A7A9AC" width="7" height="2"/>
<rect x="36" y="43" opacity="0.45" fill="#A7A9AC" width="7" height="2"/>
<rect x="36" y="41" opacity="0.45" fill="#A7A9AC" width="7" height="2"/>
<rect x="36" y="45" opacity="0.8" fill="#A7A9AC" width="7" height="2"/>
<rect x="36" y="43" opacity="0.45" fill="#A7A9AC" width="7" height="2"/>
<rect x="36" y="45" opacity="0.8" fill="#A7A9AC" width="7" height="2"/>
<rect x="36" y="43" opacity="0.45" fill="#A7A9AC" width="7" height="2"/>
<rect x="36" y="45" opacity="0.8" fill="#A7A9AC" width="7" height="2"/>
<polygon opacity="0.58" fill="#A7A9AC" points="32,6 32,8 18,8 18,6 16,6 16,8 16,17 34,17 34,15 34,8 34,6 "/>
<rect x="16" y="6" opacity="0.58" fill="#A7A9AC" width="2" height="9"/>
<rect x="32" y="6" opacity="0.58" fill="#A7A9AC" width="2" height="9"/>
<rect x="7" y="5" opacity="0.35" fill="#FFFFFF" width="2" height="37.9"/>
<rect x="41" y="5" opacity="0.58" fill="#A7A9AC" width="2" height="42"/>
<rect x="12" y="44" opacity="0.45" fill="#A7A9AC" width="25" height="2"/>
<polygon fill="#FF5A12" points="36,18 36,16 34,16 34,14 32,14 32,12 18,12 18,14 16,14 16,16 14,16 14,18 12,18 12,46 14,46 14,48 
	36,48 36,46 38,46 38,18 "/>
<rect x="12" y="18" opacity="0.35" fill="#FFFFFF" width="2" height="28"/>
<rect x="12" y="18" opacity="0.35" fill="#FFFFFF" width="2" height="25.9"/>
<rect x="12" y="18" opacity="0.35" fill="#FFFFFF" width="2" height="25.9"/>
<rect x="14" y="18" opacity="0.35" fill="#FFFFFF" width="2" height="25.9"/>
<rect x="14" y="16" opacity="0.35" fill="#FFFFFF" width="2" height="2"/>
<rect x="14" y="16" opacity="0.35" fill="#FFFFFF" width="2" height="2"/>
<rect x="14" y="16" opacity="0.35" fill="#FFFFFF" width="2" height="2"/>
<rect x="16" y="14" opacity="0.35" fill="#FFFFFF" width="2" height="2"/>
<rect x="18" y="12" opacity="0.35" fill="#FFFFFF" width="2" height="2"/>
<rect x="36" y="18" opacity="0.25" fill="#A7A9AC" width="2" height="28"/>
<rect x="36" y="18" opacity="0.25" fill="#A7A9AC" width="2" height="28"/>
<rect x="36" y="18" opacity="0.25" fill="#A7A9AC" width="2" height="28"/>
<rect x="36" y="18" opacity="0.25" fill="#A7A9AC" width="2" height="28"/>
<rect x="34" y="18" opacity="0.25" fill="#A7A9AC" width="2" height="28"/>
<rect x="34" y="16" opacity="0.25" fill="#A7A9AC" width="2" height="2"/>
<rect x="34" y="16" opacity="0.25" fill="#A7A9AC" width="2" height="2"/>
<rect x="34" y="16" opacity="0.25" fill="#A7A9AC" width="2" height="2"/>
<rect x="32" y="16" opacity="0.25" fill="#A7A9AC" width="2" height="2"/>
<rect x="32" y="14" opacity="0.25" fill="#A7A9AC" width="2" height="2"/>
<rect x="32" y="14" opacity="0.25" fill="#A7A9AC" width="2" height="2"/>
<rect x="30" y="14" opacity="0.15" fill="#A7A9AC" width="2" height="2"/>
<rect x="30" y="12" opacity="0.25" fill="#A7A9AC" width="2" height="2"/>
<rect x="14" y="46" opacity="0.8" fill="#A7A9AC" width="22" height="2"/>
<rect x="12" y="44" opacity="0.45" fill="#A7A9AC" width="26" height="2"/>
<g>
	<rect x="22" y="2" fill="#FFFFFF" width="2" height="11"/>
	<rect x="20" y="2" fill="#D1D3D4" width="2" height="10"/>
	<rect x="24" y="2" fill="#D1D3D4" width="2" height="11"/>
	<rect x="26" y="2" fill="#A7A9AC" width="2" height="11"/>
	<rect x="28" y="2" fill="#808285" width="2" height="10"/>
</g>
<rect x="17" y="42" opacity="0.4" fill="#231F20" width="7" height="2"/>
<rect x="17" y="45" opacity="0.4" fill="#231F20" width="7" height="2"/>
<rect x="26" y="42" opacity="0.4" fill="#231F20" width="7" height="2"/>
<rect x="26" y="45" opacity="0.4" fill="#231F20" width="7" height="2"/>
<rect x="17" y="45" opacity="0.4" fill="#231F20" width="7" height="2"/>
<rect x="26" y="45" opacity="0.4" fill="#231F20" width="7" height="2"/>
<rect x="22" y="36" opacity="0.25" fill="#A7A9AC" width="6" height="2"/>
<rect x="22" y="24" opacity="0.25" fill="#A7A9AC" width="6" height="2"/>
<rect x="20" y="26" opacity="0.25" fill="#A7A9AC" width="2" height="2"/>
<rect x="20" y="34" opacity="0.25" fill="#A7A9AC" width="2" height="2"/>
<rect x="18" y="28" opacity="0.25" fill="#A7A9AC" width="2" height="6"/>
<rect x="22" y="24" opacity="0.25" fill="#A7A9AC" width="6" height="2"/>
<rect x="20" y="26" opacity="0.25" fill="#A7A9AC" width="2" height="2"/>
<rect x="30" y="18" opacity="0.25" fill="#A7A9AC" width="2" height="2"/>
<rect x="30" y="22" opacity="0.25" fill="#A7A9AC" width="2" height="2"/>
<rect x="30" y="22" opacity="0.25" fill="#A7A9AC" width="2" height="1"/>
<rect x="30" y="18" opacity="0.25" fill="#A7A9AC" width="2" height="1"/>
<rect x="16" y="38" opacity="0.4" fill="#231F20" width="2" height="2"/>
<rect x="17" y="39" opacity="0.4" fill="#231F20" width="1" height="1"/>
<rect x="18" y="28" opacity="0.25" fill="#A7A9AC" width="2" height="6"/>
<rect x="28" y="26" opacity="0.25" fill="#A7A9AC" width="2" height="2"/>
<rect x="28" y="34" opacity="0.25" fill="#A7A9AC" width="2" height="2"/>
<rect x="30" y="28" opacity="0.25" fill="#A7A9AC" width="2" height="6"/>
<rect x="22" y="26" opacity="0.35" fill="#FFFFFF" width="4" height="2"/>
<rect x="20" y="28" opacity="0.35" fill="#FFFFFF" width="2" height="2"/>
<rect x="30" y="34" opacity="0.35" fill="#FFFFFF" width="2" height="2"/>
<rect x="28" y="36" opacity="0.35" fill="#FFFFFF" width="2" height="2"/>
<rect x="22" y="26" opacity="0.35" fill="#FFFFFF" width="2" height="2"/>
<rect x="16" y="16" opacity="0.15" fill="#FFFFFF" width="2" height="2"/>
<rect x="18" y="14" opacity="0.15" fill="#FFFFFF" width="2" height="2"/>
<rect x="22" y="13" opacity="0.15" fill="#FFFFFF" width="2" height="2"/>
<rect x="24" y="13" opacity="0.15" fill="#FFFFFF" width="2" height="2"/>
<rect x="26" y="13" opacity="0.15" fill="#FFFFFF" width="2" height="2"/>
</svg>
