<?xml version="1.0" encoding="utf-8"?>
<!-- Generator: Adobe Illustrator 18.0.0, SVG Export Plug-In . SVG Version: 6.00 Build 0)  -->
<!DOCTYPE svg PUBLIC "-//W3C//DTD SVG 1.1//EN" "http://www.w3.org/Graphics/SVG/1.1/DTD/svg11.dtd">
<svg version="1.1" id="Layer_1" xmlns="http://www.w3.org/2000/svg" xmlns:xlink="http://www.w3.org/1999/xlink" x="0px" y="0px"
	 width="50px" height="50px" viewBox="0 0 50 50" enable-background="new 0 0 50 50" xml:space="preserve">
<rect x="24" y="32" fill="#FF6536" width="2" height="11"/>
<rect x="25" y="31" fill="#EF3F22" width="1" height="15"/>
<rect x="24" y="6" fill="#FF6536" width="2" height="11"/>
<rect x="25" y="8.8" fill="#EF3F22" width="1" height="12.2"/>
<rect x="27" y="1.8" fill="#EF3F22" width="1" height="5"/>
<rect x="16" y="23" fill="#FF6536" width="6" height="2"/>
<rect x="30.1" y="23" fill="#FF6536" width="9.9" height="2"/>
<rect x="39" y="24" fill="#FF6536" width="8" height="2"/>
<rect x="5" y="22" fill="#FF6536" width="9" height="2"/>
<rect x="3" y="23" fill="#EF3F22" width="10" height="1"/>
<rect x="29" y="24" fill="#EF3F22" width="10" height="1"/>
<rect x="39" y="25" fill="#EF3F22" width="10" height="1"/>
<rect x="17" y="24" fill="#EF3F22" width="6.9" height="1"/>
<rect x="30" y="28" fill="#FF6536" width="5" height="5"/>
<rect x="31" y="29" fill="#FFAE2C" width="3" height="3"/>
<rect x="32" y="30" fill="#FFFFFF" width="1" height="1"/>
<rect x="15" y="14" fill="#FF6536" width="5" height="5"/>
<rect x="16" y="15" fill="#FFAE2C" width="3" height="3"/>
<rect x="17" y="16" fill="#FFFFFF" width="1" height="1"/>
<rect x="12" y="8" fill="#FFAE2C" width="3" height="3"/>
<rect x="13" y="9" fill="#FFFFFF" width="1" height="1"/>
<rect x="28" y="27" fill="#FF6536" width="1" height="1"/>
<rect x="14" y="25" fill="#FF6536" width="1" height="1"/>
<rect x="9" y="14" fill="#FF6536" width="1" height="1"/>
<rect x="8" y="5" fill="#FF6536" width="1" height="1"/>
<rect x="36" y="7" fill="#FF6536" width="1" height="1"/>
<rect x="12" y="18" fill="#FF6536" width="1" height="1"/>
<rect x="3.5" y="40.5" fill="#FF6536" width="1" height="1"/>
<rect x="17" y="32" fill="#FF6536" width="1" height="1"/>
<rect x="16" y="30" fill="#FF6536" width="1" height="1"/>
<rect x="15" y="12" fill="#FFAE2C" width="1" height="1"/>
<rect x="36" y="38" fill="#FFAE2C" width="1" height="1"/>
<rect x="11" y="39" fill="#FFAE2C" width="1" height="1"/>
<rect x="23" y="18" fill="#FFAE2C" width="1" height="1"/>
<rect x="29" y="34" fill="#FFAE2C" width="1" height="1"/>
<rect x="18" y="27" fill="#FF6536" width="1" height="1"/>
<rect x="29" y="30" fill="#FF6536" width="1" height="1"/>
<rect x="34" y="11" fill="#FFAE2C" width="3" height="3"/>
<rect x="35" y="12" fill="#FFFFFF" width="1" height="1"/>
<rect x="16" y="42" fill="#FF6536" width="1" height="2"/>
<rect x="17" y="40" fill="#FF6536" width="1" height="2"/>
<rect x="18" y="38" fill="#FF6536" width="1" height="2"/>
<rect x="19" y="36" fill="#FF6536" width="1" height="2"/>
<rect x="21" y="31" fill="#FF6536" width="1" height="2"/>
<rect x="22" y="29" fill="#FF6536" width="1" height="2"/>
<rect x="24" y="26" fill="#FF6536" width="1" height="2"/>
<rect x="19" y="38" fill="#EF3F22" width="1" height="2"/>
<rect x="20" y="36" fill="#EF3F22" width="1" height="2"/>
<rect x="22" y="31" fill="#EF3F22" width="1" height="2"/>
<rect x="21" y="9" fill="#FF6536" width="1" height="2"/>
<rect x="28" y="37" fill="#FF6536" width="1" height="2"/>
<rect x="27" y="35" fill="#FF6536" width="1" height="2"/>
<rect x="22" y="11" fill="#EF3F22" width="1" height="2"/>
<rect x="28" y="13" fill="#EF3F22" width="1" height="2"/>
<rect x="34" y="40" fill="#EF3F22" width="1" height="2"/>
<rect x="31" y="20" fill="#FF6536" width="2" height="1"/>
<rect x="33" y="19" fill="#FF6536" width="2" height="1"/>
<rect x="34" y="18" fill="#EF3F22" width="2" height="1"/>
<rect x="35" y="17" fill="#FF6536" width="2" height="1"/>
<rect x="37" y="16" fill="#FFAE2C" width="2" height="1"/>
<rect x="40" y="15" fill="#FF6536" width="2" height="1"/>
<rect x="27" y="22" fill="#FF6536" width="2" height="1"/>
<rect x="31" y="21" fill="#EF3F22" width="2" height="1"/>
<rect x="39" y="29" fill="#EF3F22" width="2" height="1"/>
<rect x="34" y="32" fill="#EF3F22" width="2" height="1"/>
<rect x="35" y="33" fill="#EF3F22" width="2" height="1"/>
<rect x="36" y="34" fill="#EF3F22" width="2" height="1"/>
<rect x="37" y="35" fill="#EF3F22" width="2" height="1"/>
<rect x="39" y="36" fill="#FF6536" width="2" height="1"/>
<rect x="41" y="38" fill="#FFAE2C" width="1" height="1"/>
<rect x="26.5" y="28.5" fill="#FFAE2C" width="1" height="1"/>
<rect x="41" y="30" fill="#FF6536" width="2" height="1"/>
<rect x="34" y="26" fill="#FF6536" width="2" height="1"/>
<rect x="12" y="26" fill="#EF3F22" width="2" height="1"/>
<rect x="18" y="28" fill="#FF6536" width="2" height="2"/>
<rect x="19" y="28" fill="#EF3F22" width="1" height="2"/>
<rect x="20" y="20" fill="#FF6536" width="2" height="2"/>
<rect x="21" y="20" fill="#EF3F22" width="1" height="2"/>
<rect x="29" y="15" fill="#FF6536" width="2" height="2"/>
<rect x="30" y="15" fill="#EF3F22" width="1" height="2"/>
<rect x="31" y="35" fill="#FF6536" width="2" height="2"/>
<rect x="32" y="35" fill="#EF3F22" width="1" height="2"/>
<rect x="31" y="8" fill="#FF6536" width="2" height="2"/>
<rect x="32" y="8" fill="#EF3F22" width="1" height="2"/>
<rect x="14" y="15" fill="#EF3F22" width="1" height="3"/>
<rect x="20" y="15" fill="#EF3F22" width="1" height="3"/>
<rect x="16" y="19" fill="#EF3F22" width="3" height="1"/>
<rect x="16" y="13" fill="#EF3F22" width="3" height="1"/>
<rect x="17" y="32" fill="#EF3F22" width="1" height="3"/>
<rect x="13" y="30" fill="#EF3F22" width="3" height="1"/>
<rect x="29" y="29" fill="#EF3F22" width="1" height="3"/>
<rect x="35" y="29" fill="#EF3F22" width="1" height="3"/>
<rect x="31" y="33" fill="#EF3F22" width="3" height="1"/>
<rect x="31" y="27" fill="#EF3F22" width="3" height="1"/>
<polygon fill="#FF6536" points="12,31 12,35 13,35 13,36 17,36 17,31 "/>
<rect x="13" y="32" fill="#FFAE2C" width="3" height="3"/>
<rect x="14" y="33" fill="#FFFFFF" width="1" height="1"/>
</svg>
