<?xml version="1.0" encoding="utf-8"?>
<!-- Generator: Adobe Illustrator 18.0.0, SVG Export Plug-In . SVG Version: 6.00 Build 0)  -->
<!DOCTYPE svg PUBLIC "-//W3C//DTD SVG 1.1//EN" "http://www.w3.org/Graphics/SVG/1.1/DTD/svg11.dtd">
<svg version="1.1" id="Layer_1" xmlns="http://www.w3.org/2000/svg" xmlns:xlink="http://www.w3.org/1999/xlink" x="0px" y="0px"
	 width="50px" height="50px" viewBox="0 0 50 50" enable-background="new 0 0 50 50" xml:space="preserve">
<rect fill="#242242" width="50" height="50"/>
<path fill="#EF487F" d="M0,0v50h50V0H0z M49,49H1V1h48V49z"/>
<path fill="#642F55" d="M1,1v48h48V1H1z M47,47H3V3h44V47z"/>
<path opacity="0.35" fill="#642F55" d="M3,3v44h44V3H3z M45,45H5V5h40V45z"/>
<rect x="10" y="3" fill="#642F55" width="2" height="2"/>
<rect x="32" y="3" fill="#642F55" width="2" height="2"/>
<rect x="11" y="45" fill="#642F55" width="2" height="2"/>
<rect x="26" y="41" fill="#642F55" width="2" height="2"/>
<rect x="45" y="38" fill="#642F55" width="2" height="2"/>
<rect x="43" y="36" fill="#642F55" width="2" height="2"/>
<rect x="40" y="19" fill="#642F55" width="2" height="2"/>
<rect x="43" y="8" fill="#642F55" width="2" height="2"/>
<rect x="41" y="12" opacity="0.35" fill="#642F55" width="2" height="2"/>
<rect x="42" y="21" opacity="0.35" fill="#642F55" width="2" height="2"/>
<rect x="41" y="31" opacity="0.35" fill="#642F55" width="2" height="2"/>
<rect x="40" y="43" opacity="0.35" fill="#642F55" width="2" height="2"/>
<rect x="33" y="39" opacity="0.35" fill="#642F55" width="2" height="2"/>
<rect x="10" y="41" opacity="0.35" fill="#642F55" width="2" height="2"/>
<rect x="7" y="37" opacity="0.35" fill="#642F55" width="2" height="2"/>
<rect x="7" y="18" opacity="0.35" fill="#642F55" width="2" height="2"/>
<rect x="7" y="7" opacity="0.35" fill="#642F55" width="2" height="2"/>
<rect x="20" y="8" opacity="0.35" fill="#642F55" width="2" height="2"/>
<rect x="36" y="45" fill="#642F55" width="2" height="2"/>
<rect x="3" y="34" fill="#642F55" width="2" height="2"/>
<rect x="3" y="20" fill="#642F55" width="2" height="2"/>
<rect x="18" y="6" fill="#642F55" width="2" height="2"/>
</svg>
