<?xml version="1.0" encoding="utf-8"?>
<!-- Generator: Adobe Illustrator 18.0.0, SVG Export Plug-In . SVG Version: 6.00 Build 0)  -->
<!DOCTYPE svg PUBLIC "-//W3C//DTD SVG 1.1//EN" "http://www.w3.org/Graphics/SVG/1.1/DTD/svg11.dtd">
<svg version="1.1" id="Layer_1" xmlns="http://www.w3.org/2000/svg" xmlns:xlink="http://www.w3.org/1999/xlink" x="0px" y="0px"
	 width="50px" height="50px" viewBox="0 0 50 50" enable-background="new 0 0 50 50" xml:space="preserve">
<polygon fill="#FF6536" points="28,6 28,4 22,4 22,6 20,6 20,18 22,18 22,20 22,22 24,22 24,38 26,38 26,22 28,22 28,20 28,18 
	30,18 30,6 "/>
<rect x="20" y="22" fill="#FF6536" width="2" height="2"/>
<rect x="25" y="45" fill="#FF6536" width="1" height="1"/>
<rect x="27" y="30" fill="#FF6536" width="1" height="1"/>
<rect x="22" y="31" fill="#FF6536" width="1" height="1"/>
<rect x="28" y="29" fill="#EF3F22" width="1" height="1"/>
<rect x="20" y="26" fill="#FF6536" width="1" height="1"/>
<rect x="20" y="19" fill="#FF6536" width="1" height="1"/>
<rect x="29" y="20" fill="#FF6536" width="1" height="1"/>
<rect x="23" y="22" fill="#FF6536" width="1" height="1"/>
<rect x="29" y="25" fill="#FF6536" width="1" height="1"/>
<rect x="28" y="33" fill="#FF6536" width="1" height="1"/>
<rect x="21" y="34" fill="#FF6536" width="1" height="1"/>
<rect x="21" y="28" fill="#FF6536" width="2" height="2"/>
<rect x="26" y="24" fill="#FF6536" width="2" height="2"/>
<rect x="28" y="22" fill="#FF6536" width="2" height="2"/>
<rect x="26" y="18" fill="#EF3F22" width="2" height="4"/>
<rect x="25" y="22" fill="#EF3F22" width="1" height="19"/>
<rect x="27" y="24" fill="#EF3F22" width="1" height="2"/>
<rect x="22" y="28" fill="#EF3F22" width="1" height="2"/>
<rect x="29" y="22" fill="#EF3F22" width="1" height="2"/>
<rect x="21" y="22" fill="#EF3F22" width="1" height="2"/>
<rect x="28" y="13" fill="#EF3F22" width="2" height="5"/>
<rect x="29" y="6" fill="#EF3F22" width="1" height="12"/>
<rect x="21" y="7" fill="#FFAE2C" width="8" height="7"/>
<rect x="23" y="5" fill="#FFAE2C" width="4" height="11"/>
<rect x="24" y="8" fill="#FFFFFF" width="2" height="5"/>
<rect x="24" y="6" fill="#FFFFFF" width="2" height="2"/>
<rect x="24" y="13" fill="#FFFFFF" width="2" height="2"/>
<rect x="22" y="8" fill="#FFFFFF" width="2" height="5"/>
<rect x="26" y="8" fill="#FFFFFF" width="2" height="5"/>
<rect x="23" y="13" fill="#FFFFFF" width="1" height="1"/>
<rect x="24" y="20" fill="#FFFFFF" width="1" height="1"/>
<rect x="24" y="21" fill="#FFAE2C" width="1" height="1"/>
<rect x="23" y="17" fill="#FFFFFF" width="1" height="1"/>
<rect x="23" y="18" fill="#FFAE2C" width="1" height="1"/>
<rect x="26" y="17" fill="#FFFFFF" width="1" height="1"/>
<rect x="26" y="18" fill="#FFAE2C" width="1" height="1"/>
<rect x="23" y="7" fill="#FFFFFF" width="1" height="1"/>
<rect x="26" y="7" fill="#FFFFFF" width="1" height="1"/>
<rect x="26" y="13" fill="#FFFFFF" width="1" height="1"/>
<rect x="22" y="14" fill="#FFAE2C" width="1" height="1"/>
<rect x="22" y="6" fill="#FFAE2C" width="1" height="1"/>
<rect x="21" y="5" fill="#FF6536" width="1" height="1"/>
<rect x="28" y="5" fill="#FF6536" width="1" height="1"/>
<rect x="27" y="14" fill="#FFAE2C" width="1" height="1"/>
<rect x="27" y="6" fill="#FFAE2C" width="1" height="1"/>
</svg>
