<?xml version="1.0" encoding="utf-8"?>
<!-- Generator: Adobe Illustrator 18.0.0, SVG Export Plug-In . SVG Version: 6.00 Build 0)  -->
<!DOCTYPE svg PUBLIC "-//W3C//DTD SVG 1.1//EN" "http://www.w3.org/Graphics/SVG/1.1/DTD/svg11.dtd">
<svg version="1.1" id="Layer_1" xmlns="http://www.w3.org/2000/svg" xmlns:xlink="http://www.w3.org/1999/xlink" x="0px" y="0px"
	 width="50px" height="50px" viewBox="0 0 50 50" enable-background="new 0 0 50 50" xml:space="preserve">
<g>
	<rect x="13" y="9" fill="#18E9A7" width="2" height="32"/>
	<rect x="15" y="7" fill="#1AFFB8" width="2" height="36"/>
	<rect x="15" y="10.9" opacity="0.8" fill="#FFFFFF" width="2" height="21.8"/>
	<rect x="17" y="7" fill="#19F4B0" width="2" height="36"/>
	<rect x="19" y="7" fill="#18E9A7" width="2" height="36"/>
	<rect x="21" y="7" fill="#17DE9F" width="2" height="36"/>
	<rect x="23" y="7" fill="#16D396" width="2" height="36"/>
	<rect x="25" y="7" fill="#15C88E" width="2" height="36"/>
	<rect x="27" y="7" fill="#13BE85" width="2" height="36"/>
	<rect x="29" y="7" fill="#12B37D" width="2" height="36"/>
	<rect x="31" y="7" fill="#15C88E" width="2" height="36"/>
	<rect x="33" y="7" fill="#16D396" width="2" height="36"/>
	<rect x="35" y="9" fill="#109D6C" width="2" height="32"/>
	<rect x="15" y="7" fill="#FFFFFF" width="2" height="2"/>
	<rect x="17" y="7" fill="#F1F2F2" width="2" height="2"/>
	<rect x="19" y="7" fill="#F1F2F2" width="2" height="2"/>
	<rect x="21" y="7" fill="#E6E7E8" width="2" height="2"/>
	<rect x="23" y="7" fill="#FFFFFF" width="2" height="2"/>
	<rect x="25" y="7" fill="#BCBEC0" width="2" height="2"/>
	<rect x="27" y="7" fill="#939598" width="2" height="2"/>
	<rect x="21" y="5" fill="#E6E7E8" width="2" height="2"/>
	<rect x="23" y="5" fill="#FFFFFF" width="2" height="2"/>
	<rect x="25" y="5" fill="#BCBEC0" width="2" height="2"/>
	<rect x="27" y="5" fill="#939598" width="2" height="2"/>
	<rect x="29" y="7" fill="#BCBEC0" width="2" height="2"/>
	<rect x="31" y="7" fill="#E6E7E8" width="2" height="2"/>
	<rect x="33" y="7" fill="#E6E7E8" width="2" height="2"/>
	<rect x="23" y="24" fill="#FFFFFF" width="2" height="2"/>
	<rect x="21" y="26" fill="#FFFFFF" width="2" height="2"/>
	<rect x="19" y="26" opacity="0.8" fill="#FFFFFF" width="2" height="2"/>
	<rect x="21" y="24" fill="#FFFFFF" width="2" height="2"/>
	<rect x="23" y="22" fill="#FFFFFF" width="2" height="2"/>
	<rect x="23" y="20" opacity="0.9" fill="#FFFFFF" width="2" height="2"/>
	<rect x="23" y="18" opacity="0.9" fill="#FFFFFF" width="2" height="2"/>
	<rect x="21" y="20" opacity="0.8" fill="#FFFFFF" width="2" height="2"/>
	<rect x="21" y="22" opacity="0.8" fill="#FFFFFF" width="2" height="2"/>
	<rect x="23" y="16" opacity="0.8" fill="#FFFFFF" width="2" height="2"/>
	<rect x="25" y="24" fill="#FFFFFF" width="2" height="2"/>
	<rect x="27" y="22" fill="#FFFFFF" width="2" height="2"/>
	<rect x="29" y="22" opacity="0.8" fill="#FFFFFF" width="2" height="2"/>
	<rect x="27" y="24" fill="#FFFFFF" width="2" height="2"/>
	<rect x="25" y="26" fill="#FFFFFF" width="2" height="2"/>
	<rect x="25" y="28" opacity="0.9" fill="#FFFFFF" width="2" height="2"/>
	<rect x="25" y="30" opacity="0.9" fill="#FFFFFF" width="2" height="2"/>
	<rect x="27" y="28" opacity="0.8" fill="#FFFFFF" width="2" height="2"/>
	<rect x="27" y="26" opacity="0.8" fill="#FFFFFF" width="2" height="2"/>
	<rect x="25" y="32" opacity="0.8" fill="#FFFFFF" width="2" height="2"/>
</g>
</svg>
