<?xml version="1.0" encoding="utf-8"?>
<!-- Generator: Adobe Illustrator 18.0.0, SVG Export Plug-In . SVG Version: 6.00 Build 0)  -->
<!DOCTYPE svg PUBLIC "-//W3C//DTD SVG 1.1//EN" "http://www.w3.org/Graphics/SVG/1.1/DTD/svg11.dtd">
<svg version="1.1" id="Layer_1" xmlns="http://www.w3.org/2000/svg" xmlns:xlink="http://www.w3.org/1999/xlink" x="0px" y="0px"
	 width="50px" height="50px" viewBox="0 0 50 50" enable-background="new 0 0 50 50" xml:space="preserve">
<rect fill="#EF487F" width="50" height="50"/>
<rect x="2" y="2" opacity="0.1" fill="#FFFFFF" width="46" height="2"/>
<rect x="4" y="4" opacity="0.15" fill="#FFFFFF" width="42" height="2"/>
<rect x="6" y="6" opacity="0.2" fill="#FFFFFF" width="38" height="2"/>
<rect x="8" y="8" opacity="0.25" fill="#FFFFFF" width="34" height="2"/>
<rect x="10" y="10" opacity="0.3" fill="#FFFFFF" width="30" height="2"/>
<rect x="12" y="12" opacity="0.35" fill="#FFFFFF" width="26" height="2"/>
<rect x="14" y="14" opacity="0.4" fill="#FFFFFF" width="22" height="2"/>
<rect x="16" y="16" opacity="0.45" fill="#FFFFFF" width="18" height="2"/>
<rect x="18" y="18" opacity="0.5" fill="#FFFFFF" width="14" height="2"/>
<rect x="20" y="20" opacity="0.55" fill="#FFFFFF" width="10" height="2"/>
<rect x="22" y="22" opacity="0.6" fill="#FFFFFF" width="6" height="2"/>
<rect y="0" opacity="5.000000e-02" fill="#FFFFFF" width="50" height="2"/>
<rect x="2" y="46" opacity="0.6" fill="#642F55" width="46" height="2"/>
<rect x="4" y="44" opacity="0.62" fill="#642F55" width="42" height="2"/>
<rect x="6" y="42" opacity="0.64" fill="#642F55" width="38" height="2"/>
<rect x="8" y="40" opacity="0.66" fill="#642F55" width="34" height="2"/>
<rect x="10" y="38" opacity="0.68" fill="#642F55" width="30" height="2"/>
<rect x="12" y="36" opacity="0.7" fill="#642F55" width="26" height="2"/>
<rect x="14" y="34" opacity="0.72" fill="#642F55" width="22" height="2"/>
<rect x="16" y="32" opacity="0.74" fill="#642F55" width="18" height="2"/>
<rect x="18" y="30" opacity="0.76" fill="#642F55" width="14" height="2"/>
<rect x="20" y="28" opacity="0.78" fill="#642F55" width="10" height="2"/>
<rect x="22" y="26" opacity="0.8" fill="#642F55" width="6" height="2"/>
<rect x="0" y="48" opacity="0.58" fill="#642F55" width="50" height="2"/>
<g opacity="0.5">
	<rect x="48" y="2" opacity="0.6" fill="#642F55" width="2" height="46"/>
	<rect x="46" y="4" opacity="0.55" fill="#642F55" width="2" height="42"/>
	<rect x="44" y="6" opacity="0.5" fill="#642F55" width="2" height="38"/>
	<rect x="42" y="8" opacity="0.45" fill="#642F55" width="2" height="34"/>
	<rect x="40" y="10" opacity="0.4" fill="#642F55" width="2" height="30"/>
	<rect x="38" y="12" opacity="0.35" fill="#642F55" width="2" height="26"/>
	<rect x="36" y="14" opacity="0.3" fill="#642F55" width="2" height="22"/>
	<rect x="34" y="16" opacity="0.25" fill="#642F55" width="2" height="18"/>
	<rect x="32" y="18" opacity="0.2" fill="#642F55" width="2" height="14"/>
	<rect x="30" y="20" opacity="0.15" fill="#642F55" width="2" height="10"/>
	<rect x="28" y="22" opacity="0.1" fill="#642F55" width="2" height="6"/>
</g>
</svg>
