<?xml version="1.0" encoding="utf-8"?>
<!-- Generator: Adobe Illustrator 16.0.4, SVG Export Plug-In . SVG Version: 6.00 Build 0)  -->
<!DOCTYPE svg PUBLIC "-//W3C//DTD SVG 1.1//EN" "http://www.w3.org/Graphics/SVG/1.1/DTD/svg11.dtd">
<svg version="1.1" id="Layer_1" xmlns="http://www.w3.org/2000/svg" xmlns:xlink="http://www.w3.org/1999/xlink" x="0px" y="0px"
	 width="960px" height="560px" viewBox="0 0 960 560" enable-background="new 0 0 960 560" xml:space="preserve">
<path fill="lightblue" d="M79.004,114.204l31.905-63.292l28.396,6.363l-8.652,6.801l4.497,7.7l18.539-5.879l-4.08-14.93
	l-24.891-22.171l80.09,10.408l4.523,18.552l-19.91,0.906l-9.05,15.384l71.041,18.552L303.9,14.769l16.29,78.281l-24.434,0.453
	l0.905-20.814l-20.362,4.977l-9.955,46.154l26.245-7.692l-8.145-8.145l-7.692,2.715l0.453-9.955l9.502-1.357l10.859,8.597
	l13.123-5.43l5.882,11.312l-17.195-0.453l-1.357,16.29l-23.529,4.978l2.262,21.267l21.267-9.05l13.122-20.362l11.312-3.167
	l4.977,9.502l-19.909,18.1l-28.507,14.027l-31.222-20.814l22.172-15.385l-41.629-12.217l25.792-12.217l-27.602-8.145l-12.217,39.819
	l28.054-5.43l-4.977,32.126l-25.792-5.43l-21.72-21.72l13.122-17.647l5.43-10.859l-9.05-9.502l-17.647,1.357l-5.882,7.692
	l13.122,5.882l0.453,6.335l-11.765,2.715l-5.882-0.905l-19.005-12.217l21.267-23.53l-7.24-11.765l-12.67,4.525l-7.692,5.882
	l7.24,6.335l-3.167,9.05l-19.91,8.145l4.525,22.624l33.484,7.24l13.575,14.479l-16.742,8.597l-23.529-7.24l15.384-8.145
	l-14.027-6.334l-8.145,5.882l6.335,15.384l18.1,8.145l-23.982,7.24l-15.623-16.742l6.548-23.077V123l-10.382-10.946l9.502-16.945
	L124.263,84.5H114l-10.1,5.655l1.81,4.345H111l3.76,0.359l1.357,5.43l-11.765,10.407l-9.05,4.072l1.81,8.598l14.479,2.262
	l-2.715,13.122l-17.647,4.073l-24.887-1.81l-5.882-23.529l9.05-5.882L79.004,114.204L79.004,114.204z"/>
<circle fill="red" cx="68.5" cy="109.833" r="0.25"/>
<circle fill="red" cx="56.167" cy="116.333" r="0.25"/>
<circle fill="red" cx="63.667" cy="143.667" r="0.25"/>
<circle fill="red" cx="109.667" cy="49.667" r="0.25"/>
<circle fill="red" cx="140.667" cy="57.667" r="0.25"/>
<circle fill="red" cx="122" cy="28.167" r="0.25"/>
<circle fill="red" cx="205.5" cy="39" r="0.25"/>
<circle fill="red" cx="210.5" cy="59.167" r="0.25"/>
<circle fill="red" cx="190" cy="60.667" r="0.25"/>
<circle fill="red" cx="182.334" cy="73.5" r="0.25"/>
<circle fill="red" cx="250" cy="91.5" r="0.25"/>
<circle fill="red" cx="135.5" cy="70.833" r="0.25"/>
<circle fill="red" cx="151.334" cy="65.667" r="0.25"/>
<circle fill="red" cx="147.667" cy="52.5" r="0.25"/>
<circle fill="red" cx="141.834" cy="62.667" r="0.25"/>
<circle fill="red" cx="129.667" cy="46.333" r="0.25"/>
<circle fill="red" cx="170" cy="31.333" r="0.25"/>
<circle fill="red" cx="165.834" cy="76.167" r="0.25"/>
<circle fill="red" cx="149.334" cy="84" r="0.25"/>
<circle fill="red" cx="154.5" cy="79.833" r="0.25"/>
<circle fill="red" cx="171.334" cy="85.5" r="0.25"/>
<circle fill="red" cx="154.667" cy="90.167" r="0.25"/>
<circle fill="red" cx="163" cy="84.667" r="0.25"/>
<circle fill="red" cx="151" cy="100.667" r="0.25"/>
<circle fill="red" cx="150" cy="109.333" r="0.25"/>
<circle fill="red" cx="132.167" cy="108.667" r="0.25"/>
<circle fill="red" cx="136.334" cy="129.333" r="0.25"/>
<circle fill="red" cx="169.167" cy="136.5" r="0.25"/>
<circle fill="red" cx="170.167" cy="122.833" r="0.25"/>
<circle fill="red" cx="177.167" cy="123.667" r="0.25"/>
<circle fill="red" cx="190.5" cy="120.333" r="0.25"/>
<circle fill="red" cx="189.834" cy="112.833" r="0.25"/>
<circle fill="red" cx="177.5" cy="106.833" r="0.25"/>
<circle fill="red" cx="182.167" cy="100.667" r="0.25"/>
<circle fill="red" cx="198" cy="99.833" r="0.25"/>
<circle fill="red" cx="206.167" cy="107.667" r="0.25"/>
<circle fill="red" cx="194.167" cy="106.167" r="0.25"/>
<circle fill="red" cx="201.334" cy="118.167" r="0.25"/>
<circle fill="red" cx="187.667" cy="136" r="0.25"/>
<circle fill="red" cx="143.167" cy="118.5" r="0.25"/>
<circle fill="red" cx="183.834" cy="143" r="0.25"/>
<circle fill="red" cx="143.167" cy="140.667" r="0.25"/>
<circle fill="red" cx="153.334" cy="145.5" r="0.25"/>
<circle fill="red" cx="137.167" cy="145.167" r="0.25"/>
<circle fill="red" cx="142.667" cy="159.333" r="0.25"/>
<circle fill="red" cx="165" cy="162.167" r="0.25"/>
<circle fill="red" cx="161.5" cy="169" r="0.25"/>
<circle fill="red" cx="143.834" cy="145.5" r="0.25"/>
<circle fill="red" cx="106.667" cy="93.5" r="0.25"/>
<circle fill="red" cx="106.334" cy="92" r="0.25"/>
<circle fill="red" cx="114.167" cy="86.333" r="0.25"/>
<circle fill="red" cx="122.334" cy="86.5" r="0.25"/>
<circle fill="red" cx="123.5" cy="95.167" r="0.25"/>
<circle fill="red" cx="115.334" cy="94.5" r="0.25"/>
<circle fill="red" cx="117" cy="101.5" r="0.25"/>
<circle fill="red" cx="114.167" cy="113.167" r="0.25"/>
<circle fill="red" cx="105.334" cy="112.167" r="0.25"/>
<circle fill="red" cx="96.667" cy="116.167" r="0.25"/>
<circle fill="red" cx="98.334" cy="123" r="0.25"/>
<circle fill="red" cx="113" cy="126" r="0.25"/>
<circle fill="red" cx="109.667" cy="140.167" r="0.25"/>
<circle fill="red" cx="91.167" cy="145.167" r="0.25"/>
<circle fill="red" cx="107.167" cy="118.833" r="0.25"/>
<circle fill="red" cx="117.667" cy="132.667" r="0.25"/>
<circle fill="red" cx="124.334" cy="124.5" r="0.25"/>
<circle fill="red" cx="124" cy="136" r="0.25"/>
<circle fill="red" cx="116.834" cy="159.667" r="0.25"/>
<circle fill="red" cx="134.667" cy="177" r="0.25"/>
<circle fill="red" cx="154.334" cy="161.667" r="0.25"/>
<circle fill="red" cx="156.834" cy="125.333" r="0.25"/>
<circle fill="red" cx="209.667" cy="159.833" r="0.25"/>
<circle fill="red" cx="183.5" cy="152.667" r="0.25"/>
<circle fill="red" cx="191.667" cy="162.5" r="0.25"/>
<circle fill="red" cx="216.667" cy="134.5" r="0.25"/>
<circle fill="red" cx="243.334" cy="130.333" r="0.25"/>
<circle fill="red" cx="225.834" cy="117.5" r="0.25"/>
<circle fill="red" cx="249.834" cy="105.5" r="0.25"/>
<circle fill="red" cx="227.167" cy="99" r="0.25"/>
<circle fill="red" cx="233" cy="107" r="0.25"/>
<circle fill="red" cx="226.667" cy="125.667" r="0.25"/>
<circle fill="red" cx="265.334" cy="130.333" r="0.25"/>
<circle fill="red" cx="251.834" cy="131.333" r="0.25"/>
<circle fill="red" cx="244.167" cy="125.5" r="0.25"/>
<circle fill="red" cx="245.5" cy="145" r="0.25"/>
<circle fill="red" cx="237.834" cy="164.833" r="0.25"/>
<circle fill="red" cx="199" cy="68.333" r="0.25"/>
<circle fill="red" cx="233.834" cy="75.667" r="0.25"/>
<circle fill="red" cx="244.834" cy="48.667" r="0.25"/>
<circle fill="red" cx="277.5" cy="80" r="0.25"/>
<circle fill="red" cx="294.334" cy="75.5" r="0.25"/>
<circle fill="red" cx="293.667" cy="94.833" r="0.25"/>
<circle fill="red" cx="320.5" cy="95.333" r="0.25"/>
<circle fill="red" cx="274.834" cy="100.833" r="0.25"/>
<circle fill="red" cx="267.834" cy="122.5" r="0.25"/>
<circle fill="red" cx="289" cy="116.333" r="0.25"/>
<circle fill="red" cx="283.334" cy="110.333" r="0.25"/>
<circle fill="red" cx="275" cy="113" r="0.25"/>
<circle fill="red" cx="278.5" cy="116" r="0.25"/>
<circle fill="red" cx="284.834" cy="87.5" r="0.25"/>
<circle fill="red" cx="297" cy="106.667" r="0.25"/>
<circle fill="red" cx="310.667" cy="101.667" r="0.25"/>
<circle fill="red" cx="317.834" cy="115.333" r="0.25"/>
<circle fill="red" cx="301" cy="116" r="0.25"/>
<circle fill="red" cx="309.5" cy="126.333" r="0.25"/>
<circle fill="red" cx="298.834" cy="131.667" r="0.25"/>
<circle fill="red" cx="295.5" cy="146.5" r="0.25"/>
<circle fill="red" cx="275.834" cy="136.5" r="0.25"/>
<circle fill="red" cx="277.5" cy="154.5" r="0.25"/>
<circle fill="red" cx="278.834" cy="167.667" r="0.25"/>
<circle fill="red" cx="322.334" cy="122.667" r="0.25"/>
<circle fill="red" cx="328.667" cy="133.833" r="0.25"/>
<circle fill="red" cx="307.5" cy="153.167" r="0.25"/>
<circle fill="red" cx="251.167" cy="158.5" r="0.25"/>
<circle fill="red" cx="283.834" cy="141.833" r="0.25"/>
<circle fill="red" cx="309.167" cy="121.333" r="0.25"/>
<circle fill="red" cx="301.167" cy="100.333" r="0.25"/>
<circle fill="red" cx="322.5" cy="108.667" r="0.25"/>
<circle fill="red" cx="303.667" cy="13.167" r="0.25"/>
<circle fill="red" cx="247.5" cy="25" r="0.25"/>
<circle fill="red" cx="79.5" cy="50.834" r="0.25"/>
<circle fill="red" cx="80.167" cy="78.667" r="0.25"/>
<circle fill="red" cx="77.667" cy="113" r="0.25"/>
<circle fill="red" cx="274.167" cy="50" r="0.25"/>
<circle fill="red" cx="205.5" cy="174.667" r="0.25"/>
<circle fill="red" cx="249.667" cy="175.334" r="0.25"/>
<circle fill="red" cx="316.334" cy="169.167" r="0.25"/>
<circle fill="red" cx="81.667" cy="164.167" r="0.25"/>
<circle fill="red" cx="85.834" cy="19.334" r="0.25"/>
<circle fill="red" cx="60" cy="80.5" r="0.25"/>
<circle fill="red" cx="222.667" cy="39.667" r="0.25"/>
<circle fill="red" cx="315.667" cy="42.334" r="0.25"/>
<circle fill="green" cx="128.5" cy="31.334" r="0.25"/>
<circle fill="green" cx="150.667" cy="51.334" r="0.25"/>
<circle fill="green" cx="203" cy="41" r="0.25"/>
<circle fill="green" cx="207" cy="57.334" r="0.25"/>
<circle fill="green" cx="188.167" cy="58" r="0.25"/>
<circle fill="green" cx="178.333" cy="75.5" r="0.25"/>
<circle fill="green" cx="166.667" cy="73" r="0.25"/>
<circle fill="green" cx="154.667" cy="67" r="0.25"/>
<circle fill="green" cx="143" cy="37.667" r="0.25"/>
<circle fill="green" cx="168" cy="58.834" r="0.25"/>
<circle fill="green" cx="168.333" cy="45" r="0.25"/>
<circle fill="green" cx="195.167" cy="48.834" r="0.25"/>
<circle fill="green" cx="111.167" cy="53.5" r="0.25"/>
<circle fill="green" cx="135.333" cy="58.834" r="0.25"/>
<circle fill="green" cx="127.667" cy="65.167" r="0.25"/>
<circle fill="green" cx="134.5" cy="74.5" r="0.25"/>
<circle fill="green" cx="149.167" cy="75.334" r="0.25"/>
<circle fill="green" cx="116.167" cy="70.167" r="0.25"/>
<circle fill="green" cx="101.667" cy="90.167" r="0.25"/>
<circle fill="green" cx="78.667" cy="116.334" r="0.25"/>
<circle fill="green" cx="69.5" cy="113.834" r="0.25"/>
<circle fill="green" cx="62" cy="118.667" r="0.25"/>
<circle fill="green" cx="67.667" cy="140.334" r="0.25"/>
<circle fill="green" cx="90.333" cy="141.834" r="0.25"/>
<circle fill="green" cx="106.5" cy="138.334" r="0.25"/>
<circle fill="green" cx="109.167" cy="127.5" r="0.25"/>
<circle fill="green" cx="95.5" cy="124.834" r="0.25"/>
<circle fill="green" cx="93.333" cy="115" r="0.25"/>
<circle fill="green" cx="102.667" cy="110" r="0.25"/>
<circle fill="green" cx="113.333" cy="101" r="0.25"/>
<circle fill="green" cx="113.333" cy="97" r="0.25"/>
<circle fill="green" cx="104.5" cy="96.5" r="0.25"/>
<circle fill="green" cx="70.833" cy="124.5" r="0.25"/>
<circle fill="green" cx="95.833" cy="131.667" r="0.25"/>
<circle fill="green" cx="83" cy="132" r="0.25"/>
<circle fill="green" cx="97.5" cy="101" r="0.25"/>
<circle fill="green" cx="143.667" cy="84.167" r="0.25"/>
<circle fill="green" cx="118.333" cy="60" r="0.25"/>
<circle fill="green" cx="105.333" cy="76.5" r="0.25"/>
<circle fill="green" cx="113" cy="83.167" r="0.25"/>
<circle fill="green" cx="125.667" cy="84" r="0.25"/>
<circle fill="green" cx="126.833" cy="96" r="0.25"/>
<circle fill="green" cx="118" cy="112.167" r="0.25"/>
<circle fill="green" cx="128.333" cy="106.834" r="0.25"/>
<circle fill="green" cx="147.833" cy="98.5" r="0.25"/>
<circle fill="green" cx="150.833" cy="90.667" r="0.25"/>
<circle fill="green" cx="133" cy="131.5" r="0.25"/>
<circle fill="green" cx="127.5" cy="123.5" r="0.25"/>
<circle fill="green" cx="137.667" cy="91.167" r="0.25"/>
<circle fill="green" cx="127.833" cy="136.334" r="0.25"/>
<circle fill="green" cx="121.333" cy="158.167" r="0.25"/>
<circle fill="green" cx="135.667" cy="174" r="0.25"/>
<circle fill="green" cx="155.167" cy="168.167" r="0.25"/>
<circle fill="green" cx="140.167" cy="161.5" r="0.25"/>
<circle fill="green" cx="132.833" cy="144.5" r="0.25"/>
<circle fill="green" cx="142.333" cy="138" r="0.25"/>
<circle fill="green" cx="158.667" cy="145.667" r="0.25"/>
<circle fill="green" cx="143.667" cy="152.334" r="0.25"/>
<circle fill="green" cx="164.667" cy="159.167" r="0.25"/>
<circle fill="green" cx="179" cy="151.667" r="0.25"/>
<circle fill="green" cx="167" cy="138.834" r="0.25"/>
<circle fill="green" cx="161" cy="151.167" r="0.25"/>
<circle fill="green" cx="170" cy="148.5" r="0.25"/>
<circle fill="green" cx="130.333" cy="156.667" r="0.25"/>
<circle fill="green" cx="142.667" cy="167.167" r="0.25"/>
<circle fill="green" cx="132.5" cy="164.667" r="0.25"/>
<circle fill="green" cx="128.167" cy="116.667" r="0.25"/>
<circle fill="green" cx="174.833" cy="86" r="0.25"/>
<circle fill="green" cx="154.5" cy="109" r="0.25"/>
<circle fill="green" cx="172" cy="120.167" r="0.25"/>
<circle fill="green" cx="177" cy="121" r="0.25"/>
<circle fill="green" cx="187.167" cy="118.834" r="0.25"/>
<circle fill="green" cx="187" cy="114.167" r="0.25"/>
<circle fill="green" cx="173" cy="107.5" r="0.25"/>
<circle fill="green" cx="180" cy="98.167" r="0.25"/>
<circle fill="green" cx="199" cy="96.834" r="0.25"/>
<circle fill="green" cx="209.5" cy="108" r="0.25"/>
<circle fill="green" cx="203.167" cy="119.834" r="0.25"/>
<circle fill="green" cx="191.167" cy="136" r="0.25"/>
<circle fill="green" cx="211.667" cy="157" r="0.25"/>
<circle fill="green" cx="212.667" cy="138" r="0.25"/>
<circle fill="green" cx="240.167" cy="132.834" r="0.25"/>
<circle fill="green" cx="235.667" cy="161.667" r="0.25"/>
<circle fill="green" cx="175.333" cy="115.334" r="0.25"/>
<circle fill="green" cx="169.5" cy="100.667" r="0.25"/>
<circle fill="green" cx="164.167" cy="108.167" r="0.25"/>
<circle fill="green" cx="187.167" cy="89.834" r="0.25"/>
<circle fill="green" cx="209.333" cy="88.167" r="0.25"/>
<circle fill="green" cx="214.333" cy="100.834" r="0.25"/>
<circle fill="green" cx="211.147" cy="118.188" r="0.25"/>
<circle fill="green" cx="204.667" cy="134.667" r="0.25"/>
<circle fill="green" cx="209.833" cy="146.834" r="0.25"/>
<circle fill="green" cx="229" cy="142.667" r="0.25"/>
<circle fill="green" cx="225.5" cy="151.5" r="0.25"/>
<circle fill="green" cx="224.5" cy="95" r="0.25"/>
<circle fill="green" cx="256.167" cy="105.334" r="0.25"/>
<circle fill="green" cx="232.167" cy="117" r="0.25"/>
<circle fill="green" cx="265.333" cy="126.167" r="0.25"/>
<circle fill="green" cx="271.667" cy="129.667" r="0.25"/>
<circle fill="green" cx="253.667" cy="115.834" r="0.25"/>
<circle fill="green" cx="251.333" cy="94.834" r="0.25"/>
<circle fill="green" cx="274.333" cy="77.667" r="0.25"/>
<circle fill="green" cx="296.833" cy="72.167" r="0.25"/>
<circle fill="green" cx="286.833" cy="64" r="0.25"/>
<circle fill="green" cx="262.333" cy="88.167" r="0.25"/>
<circle fill="green" cx="263.833" cy="104.167" r="0.25"/>
<circle fill="green" cx="244.5" cy="115.334" r="0.25"/>
<circle fill="green" cx="262.333" cy="118" r="0.25"/>
<circle fill="green" cx="250.5" cy="144.667" r="0.25"/>
<circle fill="green" cx="272.5" cy="134.667" r="0.25"/>
<circle fill="green" cx="296" cy="129.334" r="0.25"/>
<circle fill="green" cx="296.833" cy="113.5" r="0.25"/>
<circle fill="green" cx="284" cy="107.667" r="0.25"/>
<circle fill="green" cx="277.5" cy="109.667" r="0.25"/>
<circle fill="green" cx="277.833" cy="102.5" r="0.25"/>
<circle fill="green" cx="286.167" cy="101.334" r="0.25"/>
<circle fill="green" cx="309.5" cy="105.167" r="0.25"/>
<circle fill="green" cx="314" cy="113.167" r="0.25"/>
<circle fill="green" cx="275.833" cy="158" r="0.25"/>
<circle fill="green" cx="266.667" cy="144.5" r="0.25"/>
<circle fill="green" cx="263.833" cy="153.834" r="0.25"/>
<circle fill="green" cx="278.833" cy="164" r="0.25"/>
<circle fill="green" cx="297.667" cy="149" r="0.25"/>
<circle fill="green" cx="305.667" cy="150.834" r="0.25"/>
<circle fill="green" cx="311.5" cy="128.334" r="0.25"/>
<circle fill="green" cx="321.334" cy="125.667" r="0.25"/>
<circle fill="green" cx="324.834" cy="133" r="0.25"/>
<circle fill="green" cx="313" cy="134.5" r="0.25"/>
<circle fill="green" cx="302.5" cy="19.334" r="0.25"/>
<circle fill="green" cx="297.667" cy="46" r="0.25"/>
<circle fill="green" cx="317.667" cy="92.167" r="0.25"/>
<circle fill="green" cx="297" cy="92.667" r="0.25"/>
<circle fill="green" cx="306.667" cy="79.667" r="0.25"/>
<circle fill="green" cx="301.667" cy="58.834" r="0.25"/>
<circle fill="green" cx="288.334" cy="52" r="0.25"/>
<circle fill="green" cx="301.667" cy="32" r="0.25"/>
<circle fill="green" cx="272.5" cy="65.5" r="0.25"/>
<circle fill="green" cx="194.667" cy="80.667" r="0.25"/>
</svg>
